<svg width="379" height="417" viewBox="0 0 379 417" fill="none" xmlns="http://www.w3.org/2000/svg">
<g filter="url(#filter0_i_41_60)">
<path d="M195.633 416.391C168.995 419.236 158.086 411.914 137.789 398.69L49.4443 342.028C24.4024 325.794 4.42615 311.534 0.706387 278.19C-0.323537 268.957 0.159879 259.389 0.159763 250.103L0.166141 164.197C0.166721 155.209 -0.582353 146.222 1.09588 137.333C7.04375 105.826 25.4785 95.8381 49.1811 80.6254L138.48 23.2773C152.697 14.0739 166.08 2.45904 183.469 0.545472C203.103 -2.71984 218.221 9.33057 233.633 19.2398L328.433 80.4085C336.876 85.8201 345.992 90.7398 353.782 97.075C377.37 116.256 378.822 138.839 378.818 165.846L378.824 249.212C378.831 260.683 379.732 272.768 377.387 284.036C370.597 316.669 350.999 327.96 326.157 343.765L237.324 400.99C219.039 412.694 218.862 414.222 195.633 416.391ZM202.843 53.6377C194.44 48.307 184.012 47.8271 175.634 53.1959V53.1959L66.1432 123.357C54.7982 130.643 48.4184 135.372 45.9929 145.256C44.2825 152.227 51.8582 156.274 57.9231 152.436V152.436L155.95 90.7978C157.583 89.7668 159.651 88.4156 161.982 86.8907C176.399 77.4601 191.95 86.7707 191.835 103.998C191.833 104.39 191.831 104.782 191.828 105.174C191.77 116.039 185.415 126.853 176.151 132.53V132.53L75.1206 195.237C56.7108 206.663 45.5489 226.548 45.5424 248.216V248.216C45.5389 262.247 43.0296 278.099 53.5098 289.255C56.5726 292.516 60.1919 295.018 63.9401 297.346C69.5047 300.803 77.2927 296.718 77.2449 290.167V290.167C77.2596 282.554 77.3239 274.927 77.3622 267.299C77.4598 247.865 87.1126 230.273 103.432 219.721V219.721L171.891 175.65V175.65C182.278 168.949 196.009 169.729 206.497 176.271C212.357 179.926 218.302 183.464 224.034 187.103L278.941 222.386C280.983 223.69 283.095 224.936 285.23 226.167C295.805 232.265 301.755 243.394 301.75 255.601V255.601L301.743 285.128V285.128C301.742 294.266 311.384 299.481 318.745 294.065C335.175 281.974 333.557 276.008 333.557 245.801L333.562 166.672C333.597 136.299 331.727 136.682 304.892 119.523L235.913 74.9434C224.889 67.8319 213.915 60.6621 202.843 53.6377ZM206.557 229.081C195.203 221.862 181.941 222.588 170.604 229.833V229.833L134.493 253.147V253.147C125.649 258.902 120.484 268.628 120.46 279.179C120.442 286.955 120.338 294.754 120.259 302.546C120.014 326.75 132.605 348.828 153.094 361.717C159.767 365.915 166.401 370.173 172.903 374.636C178.454 378.447 183.489 382.554 190.571 382.339C198.9 381.127 205.72 374.604 212.596 370.132L237.915 353.855V353.855C250.143 345.903 258.34 331.994 258.349 317.407L258.368 288.926V288.926C258.368 272.698 250.149 257.431 236.528 248.611L233.326 246.538C229.714 244.189 217.435 235.998 206.557 229.081Z" fill="#030303"/>
<path d="M195.633 416.391C168.995 419.236 158.086 411.914 137.789 398.69L49.4443 342.028C24.4024 325.794 4.42615 311.534 0.706387 278.19C-0.323537 268.957 0.159879 259.389 0.159763 250.103L0.166141 164.197C0.166721 155.209 -0.582353 146.222 1.09588 137.333C7.04375 105.826 25.4785 95.8381 49.1811 80.6254L138.48 23.2773C152.697 14.0739 166.08 2.45904 183.469 0.545472C203.103 -2.71984 218.221 9.33057 233.633 19.2398L328.433 80.4085C336.876 85.8201 345.992 90.7398 353.782 97.075C377.37 116.256 378.822 138.839 378.818 165.846L378.824 249.212C378.831 260.683 379.732 272.768 377.387 284.036C370.597 316.669 350.999 327.96 326.157 343.765L237.324 400.99C219.039 412.694 218.862 414.222 195.633 416.391ZM202.843 53.6377C194.44 48.307 184.012 47.8271 175.634 53.1959V53.1959L66.1432 123.357C54.7982 130.643 48.4184 135.372 45.9929 145.256C44.2825 152.227 51.8582 156.274 57.9231 152.436V152.436L155.95 90.7978C157.583 89.7668 159.651 88.4156 161.982 86.8907C176.399 77.4601 191.95 86.7707 191.835 103.998C191.833 104.39 191.831 104.782 191.828 105.174C191.77 116.039 185.415 126.853 176.151 132.53V132.53L75.1206 195.237C56.7108 206.663 45.5489 226.548 45.5424 248.216V248.216C45.5389 262.247 43.0296 278.099 53.5098 289.255C56.5726 292.516 60.1919 295.018 63.9401 297.346C69.5047 300.803 77.2927 296.718 77.2449 290.167V290.167C77.2596 282.554 77.3239 274.927 77.3622 267.299C77.4598 247.865 87.1126 230.273 103.432 219.721V219.721L171.891 175.65V175.65C182.278 168.949 196.009 169.729 206.497 176.271C212.357 179.926 218.302 183.464 224.034 187.103L278.941 222.386C280.983 223.69 283.095 224.936 285.23 226.167C295.805 232.265 301.755 243.394 301.75 255.601V255.601L301.743 285.128V285.128C301.742 294.266 311.384 299.481 318.745 294.065C335.175 281.974 333.557 276.008 333.557 245.801L333.562 166.672C333.597 136.299 331.727 136.682 304.892 119.523L235.913 74.9434C224.889 67.8319 213.915 60.6621 202.843 53.6377ZM206.557 229.081C195.203 221.862 181.941 222.588 170.604 229.833V229.833L134.493 253.147V253.147C125.649 258.902 120.484 268.628 120.46 279.179C120.442 286.955 120.338 294.754 120.259 302.546C120.014 326.75 132.605 348.828 153.094 361.717C159.767 365.915 166.401 370.173 172.903 374.636C178.454 378.447 183.489 382.554 190.571 382.339C198.9 381.127 205.72 374.604 212.596 370.132L237.915 353.855V353.855C250.143 345.903 258.34 331.994 258.349 317.407L258.368 288.926V288.926C258.368 272.698 250.149 257.431 236.528 248.611L233.326 246.538C229.714 244.189 217.435 235.998 206.557 229.081Z" fill="url(#paint0_radial_41_60)"/>
<path d="M195.633 416.391C168.995 419.236 158.086 411.914 137.789 398.69L49.4443 342.028C24.4024 325.794 4.42615 311.534 0.706387 278.19C-0.323537 268.957 0.159879 259.389 0.159763 250.103L0.166141 164.197C0.166721 155.209 -0.582353 146.222 1.09588 137.333C7.04375 105.826 25.4785 95.8381 49.1811 80.6254L138.48 23.2773C152.697 14.0739 166.08 2.45904 183.469 0.545472C203.103 -2.71984 218.221 9.33057 233.633 19.2398L328.433 80.4085C336.876 85.8201 345.992 90.7398 353.782 97.075C377.37 116.256 378.822 138.839 378.818 165.846L378.824 249.212C378.831 260.683 379.732 272.768 377.387 284.036C370.597 316.669 350.999 327.96 326.157 343.765L237.324 400.99C219.039 412.694 218.862 414.222 195.633 416.391ZM202.843 53.6377C194.44 48.307 184.012 47.8271 175.634 53.1959V53.1959L66.1432 123.357C54.7982 130.643 48.4184 135.372 45.9929 145.256C44.2825 152.227 51.8582 156.274 57.9231 152.436V152.436L155.95 90.7978C157.583 89.7668 159.651 88.4156 161.982 86.8907C176.399 77.4601 191.95 86.7707 191.835 103.998C191.833 104.39 191.831 104.782 191.828 105.174C191.77 116.039 185.415 126.853 176.151 132.53V132.53L75.1206 195.237C56.7108 206.663 45.5489 226.548 45.5424 248.216V248.216C45.5389 262.247 43.0296 278.099 53.5098 289.255C56.5726 292.516 60.1919 295.018 63.9401 297.346C69.5047 300.803 77.2927 296.718 77.2449 290.167V290.167C77.2596 282.554 77.3239 274.927 77.3622 267.299C77.4598 247.865 87.1126 230.273 103.432 219.721V219.721L171.891 175.65V175.65C182.278 168.949 196.009 169.729 206.497 176.271C212.357 179.926 218.302 183.464 224.034 187.103L278.941 222.386C280.983 223.69 283.095 224.936 285.23 226.167C295.805 232.265 301.755 243.394 301.75 255.601V255.601L301.743 285.128V285.128C301.742 294.266 311.384 299.481 318.745 294.065C335.175 281.974 333.557 276.008 333.557 245.801L333.562 166.672C333.597 136.299 331.727 136.682 304.892 119.523L235.913 74.9434C224.889 67.8319 213.915 60.6621 202.843 53.6377ZM206.557 229.081C195.203 221.862 181.941 222.588 170.604 229.833V229.833L134.493 253.147V253.147C125.649 258.902 120.484 268.628 120.46 279.179C120.442 286.955 120.338 294.754 120.259 302.546C120.014 326.75 132.605 348.828 153.094 361.717C159.767 365.915 166.401 370.173 172.903 374.636C178.454 378.447 183.489 382.554 190.571 382.339C198.9 381.127 205.72 374.604 212.596 370.132L237.915 353.855V353.855C250.143 345.903 258.34 331.994 258.349 317.407L258.368 288.926V288.926C258.368 272.698 250.149 257.431 236.528 248.611L233.326 246.538C229.714 244.189 217.435 235.998 206.557 229.081Z" fill="url(#paint1_radial_41_60)"/>
<path d="M195.633 416.391C168.995 419.236 158.086 411.914 137.789 398.69L49.4443 342.028C24.4024 325.794 4.42615 311.534 0.706387 278.19C-0.323537 268.957 0.159879 259.389 0.159763 250.103L0.166141 164.197C0.166721 155.209 -0.582353 146.222 1.09588 137.333C7.04375 105.826 25.4785 95.8381 49.1811 80.6254L138.48 23.2773C152.697 14.0739 166.08 2.45904 183.469 0.545472C203.103 -2.71984 218.221 9.33057 233.633 19.2398L328.433 80.4085C336.876 85.8201 345.992 90.7398 353.782 97.075C377.37 116.256 378.822 138.839 378.818 165.846L378.824 249.212C378.831 260.683 379.732 272.768 377.387 284.036C370.597 316.669 350.999 327.96 326.157 343.765L237.324 400.99C219.039 412.694 218.862 414.222 195.633 416.391ZM202.843 53.6377C194.44 48.307 184.012 47.8271 175.634 53.1959V53.1959L66.1432 123.357C54.7982 130.643 48.4184 135.372 45.9929 145.256C44.2825 152.227 51.8582 156.274 57.9231 152.436V152.436L155.95 90.7978C157.583 89.7668 159.651 88.4156 161.982 86.8907C176.399 77.4601 191.95 86.7707 191.835 103.998C191.833 104.39 191.831 104.782 191.828 105.174C191.77 116.039 185.415 126.853 176.151 132.53V132.53L75.1206 195.237C56.7108 206.663 45.5489 226.548 45.5424 248.216V248.216C45.5389 262.247 43.0296 278.099 53.5098 289.255C56.5726 292.516 60.1919 295.018 63.9401 297.346C69.5047 300.803 77.2927 296.718 77.2449 290.167V290.167C77.2596 282.554 77.3239 274.927 77.3622 267.299C77.4598 247.865 87.1126 230.273 103.432 219.721V219.721L171.891 175.65V175.65C182.278 168.949 196.009 169.729 206.497 176.271C212.357 179.926 218.302 183.464 224.034 187.103L278.941 222.386C280.983 223.69 283.095 224.936 285.23 226.167C295.805 232.265 301.755 243.394 301.75 255.601V255.601L301.743 285.128V285.128C301.742 294.266 311.384 299.481 318.745 294.065C335.175 281.974 333.557 276.008 333.557 245.801L333.562 166.672C333.597 136.299 331.727 136.682 304.892 119.523L235.913 74.9434C224.889 67.8319 213.915 60.6621 202.843 53.6377ZM206.557 229.081C195.203 221.862 181.941 222.588 170.604 229.833V229.833L134.493 253.147V253.147C125.649 258.902 120.484 268.628 120.46 279.179C120.442 286.955 120.338 294.754 120.259 302.546C120.014 326.75 132.605 348.828 153.094 361.717C159.767 365.915 166.401 370.173 172.903 374.636C178.454 378.447 183.489 382.554 190.571 382.339C198.9 381.127 205.72 374.604 212.596 370.132L237.915 353.855V353.855C250.143 345.903 258.34 331.994 258.349 317.407L258.368 288.926V288.926C258.368 272.698 250.149 257.431 236.528 248.611L233.326 246.538C229.714 244.189 217.435 235.998 206.557 229.081Z" fill="url(#paint2_radial_41_60)" fill-opacity="0.2"/>
<path d="M195.633 416.391C168.995 419.236 158.086 411.914 137.789 398.69L49.4443 342.028C24.4024 325.794 4.42615 311.534 0.706387 278.19C-0.323537 268.957 0.159879 259.389 0.159763 250.103L0.166141 164.197C0.166721 155.209 -0.582353 146.222 1.09588 137.333C7.04375 105.826 25.4785 95.8381 49.1811 80.6254L138.48 23.2773C152.697 14.0739 166.08 2.45904 183.469 0.545472C203.103 -2.71984 218.221 9.33057 233.633 19.2398L328.433 80.4085C336.876 85.8201 345.992 90.7398 353.782 97.075C377.37 116.256 378.822 138.839 378.818 165.846L378.824 249.212C378.831 260.683 379.732 272.768 377.387 284.036C370.597 316.669 350.999 327.96 326.157 343.765L237.324 400.99C219.039 412.694 218.862 414.222 195.633 416.391ZM202.843 53.6377C194.44 48.307 184.012 47.8271 175.634 53.1959V53.1959L66.1432 123.357C54.7982 130.643 48.4184 135.372 45.9929 145.256C44.2825 152.227 51.8582 156.274 57.9231 152.436V152.436L155.95 90.7978C157.583 89.7668 159.651 88.4156 161.982 86.8907C176.399 77.4601 191.95 86.7707 191.835 103.998C191.833 104.39 191.831 104.782 191.828 105.174C191.77 116.039 185.415 126.853 176.151 132.53V132.53L75.1206 195.237C56.7108 206.663 45.5489 226.548 45.5424 248.216V248.216C45.5389 262.247 43.0296 278.099 53.5098 289.255C56.5726 292.516 60.1919 295.018 63.9401 297.346C69.5047 300.803 77.2927 296.718 77.2449 290.167V290.167C77.2596 282.554 77.3239 274.927 77.3622 267.299C77.4598 247.865 87.1126 230.273 103.432 219.721V219.721L171.891 175.65V175.65C182.278 168.949 196.009 169.729 206.497 176.271C212.357 179.926 218.302 183.464 224.034 187.103L278.941 222.386C280.983 223.69 283.095 224.936 285.23 226.167C295.805 232.265 301.755 243.394 301.75 255.601V255.601L301.743 285.128V285.128C301.742 294.266 311.384 299.481 318.745 294.065C335.175 281.974 333.557 276.008 333.557 245.801L333.562 166.672C333.597 136.299 331.727 136.682 304.892 119.523L235.913 74.9434C224.889 67.8319 213.915 60.6621 202.843 53.6377ZM206.557 229.081C195.203 221.862 181.941 222.588 170.604 229.833V229.833L134.493 253.147V253.147C125.649 258.902 120.484 268.628 120.46 279.179C120.442 286.955 120.338 294.754 120.259 302.546C120.014 326.75 132.605 348.828 153.094 361.717C159.767 365.915 166.401 370.173 172.903 374.636C178.454 378.447 183.489 382.554 190.571 382.339C198.9 381.127 205.72 374.604 212.596 370.132L237.915 353.855V353.855C250.143 345.903 258.34 331.994 258.349 317.407L258.368 288.926V288.926C258.368 272.698 250.149 257.431 236.528 248.611L233.326 246.538C229.714 244.189 217.435 235.998 206.557 229.081Z" fill="url(#paint3_radial_41_60)" fill-opacity="0.4"/>
</g>
<defs>
<filter id="filter0_i_41_60" x="0" y="0" width="379" height="417" filterUnits="userSpaceOnUse" color-interpolation-filters="sRGB">
<feFlood flood-opacity="0" result="BackgroundImageFix"/>
<feBlend mode="normal" in="SourceGraphic" in2="BackgroundImageFix" result="shape"/>
<feColorMatrix in="SourceAlpha" type="matrix" values="0 0 0 0 0 0 0 0 0 0 0 0 0 0 0 0 0 0 127 0" result="hardAlpha"/>
<feOffset/>
<feGaussianBlur stdDeviation="5"/>
<feComposite in2="hardAlpha" operator="arithmetic" k2="-1" k3="1"/>
<feColorMatrix type="matrix" values="0 0 0 0 1 0 0 0 0 1 0 0 0 0 1 0 0 0 0.6 0"/>
<feBlend mode="normal" in2="shape" result="effect1_innerShadow_41_60"/>
</filter>
<radialGradient id="paint0_radial_41_60" cx="0" cy="0" r="1" gradientUnits="userSpaceOnUse" gradientTransform="translate(312.244 231.305) rotate(-140.77) scale(175.14 1095.72)">
<stop stop-color="#41FF48"/>
<stop offset="1" stop-color="#00BCB1"/>
</radialGradient>
<radialGradient id="paint1_radial_41_60" cx="0" cy="0" r="1" gradientUnits="userSpaceOnUse" gradientTransform="translate(127.051 -65.1563) rotate(78.8761) scale(524.59 466.053)">
<stop stop-color="#E0E342"/>
<stop offset="0.8515" stop-color="#23AD8C" stop-opacity="0.58"/>
</radialGradient>
<radialGradient id="paint2_radial_41_60" cx="0" cy="0" r="1" gradientUnits="userSpaceOnUse" gradientTransform="translate(86.1364 84.7031) rotate(34.8098) scale(308.173 436.369)">
<stop offset="0.186254" stop-color="#E2F12D"/>
<stop offset="1" stop-color="#E2F12D" stop-opacity="0.93"/>
</radialGradient>
<radialGradient id="paint3_radial_41_60" cx="0" cy="0" r="1" gradientUnits="userSpaceOnUse" gradientTransform="translate(209.957 58.6406) rotate(90) scale(358.359 174.001)">
<stop stop-color="white"/>
<stop offset="1" stop-color="white" stop-opacity="0.08"/>
</radialGradient>
</defs>
</svg>
